<?xml version="1.0" encoding="UTF-8" standalone="no"?>
<svg
   xmlns:dc="http://purl.org/dc/elements/1.1/"
   xmlns:cc="http://creativecommons.org/ns#"
   xmlns:rdf="http://www.w3.org/1999/02/22-rdf-syntax-ns#"
   xmlns:svg="http://www.w3.org/2000/svg"
   xmlns="http://www.w3.org/2000/svg"
   xmlns:sodipodi="http://sodipodi.sourceforge.net/DTD/sodipodi-0.dtd"
   xmlns:inkscape="http://www.inkscape.org/namespaces/inkscape"
   width="760"
   height="320"
   viewBox="-624000 0 0 600"
   version="1.1"
   xml:space="preserve"
   style="clip-rule:evenodd;fill-rule:evenodd;stroke-linejoin:round;stroke-miterlimit:1.41420996"
   id="svg2"
   inkscape:version="0.91 r13725"
   sodipodi:docname="Architecture.svg"><metadata
     id="metadata126"><rdf:RDF><cc:Work
         rdf:about=""><dc:format>image/svg+xml</dc:format><dc:type
           rdf:resource="http://purl.org/dc/dcmitype/StillImage" /><dc:title></dc:title></cc:Work></rdf:RDF></metadata><defs
     id="defs124"><marker
       inkscape:stockid="Arrow1Lend"
       orient="auto"
       refY="0"
       refX="0"
       id="marker8036"
       style="overflow:visible"
       inkscape:isstock="true"><path
         id="path8038"
         d="M 0,0 5,-5 -12.5,0 5,5 0,0 Z"
         style="fill:#000000;fill-opacity:1;fill-rule:evenodd;stroke:#000000;stroke-width:1pt;stroke-opacity:1"
         transform="matrix(-0.8,0,0,-0.8,-10,0)"
         inkscape:connector-curvature="0" /></marker><marker
       inkscape:isstock="true"
       style="overflow:visible"
       id="marker7832"
       refX="0"
       refY="0"
       orient="auto"
       inkscape:stockid="Arrow1Lend"
       inkscape:collect="always"><path
         transform="matrix(-0.8,0,0,-0.8,-10,0)"
         style="fill:#000000;fill-opacity:1;fill-rule:evenodd;stroke:#000000;stroke-width:1pt;stroke-opacity:1"
         d="M 0,0 5,-5 -12.5,0 5,5 0,0 Z"
         id="path7834"
         inkscape:connector-curvature="0" /></marker><marker
       inkscape:stockid="Arrow1Lend"
       orient="auto"
       refY="0"
       refX="0"
       id="marker7682"
       style="overflow:visible"
       inkscape:isstock="true"
       inkscape:collect="always"><path
         id="path7684"
         d="M 0,0 5,-5 -12.5,0 5,5 0,0 Z"
         style="fill:#000000;fill-opacity:1;fill-rule:evenodd;stroke:#000000;stroke-width:1pt;stroke-opacity:1"
         transform="matrix(-0.8,0,0,-0.8,-10,0)"
         inkscape:connector-curvature="0" /></marker><marker
       inkscape:isstock="true"
       style="overflow:visible"
       id="marker7502"
       refX="0"
       refY="0"
       orient="auto"
       inkscape:stockid="Arrow1Lend"
       inkscape:collect="always"><path
         transform="matrix(-0.8,0,0,-0.8,-10,0)"
         style="fill:#000000;fill-opacity:1;fill-rule:evenodd;stroke:#000000;stroke-width:1pt;stroke-opacity:1"
         d="M 0,0 5,-5 -12.5,0 5,5 0,0 Z"
         id="path7504"
         inkscape:connector-curvature="0" /></marker><marker
       inkscape:stockid="Arrow1Lend"
       orient="auto"
       refY="0"
       refX="0"
       id="marker7088"
       style="overflow:visible"
       inkscape:isstock="true"
       inkscape:collect="always"><path
         id="path7090"
         d="M 0,0 5,-5 -12.5,0 5,5 0,0 Z"
         style="fill:#000000;fill-opacity:1;fill-rule:evenodd;stroke:#000000;stroke-width:1pt;stroke-opacity:1"
         transform="matrix(-0.8,0,0,-0.8,-10,0)"
         inkscape:connector-curvature="0" /></marker><marker
       inkscape:isstock="true"
       style="overflow:visible"
       id="marker6578"
       refX="0"
       refY="0"
       orient="auto"
       inkscape:stockid="Arrow1Lstart"><path
         transform="matrix(0.8,0,0,0.8,10,0)"
         style="fill:#000000;fill-opacity:1;fill-rule:evenodd;stroke:#000000;stroke-width:1pt;stroke-opacity:1"
         d="M 0,0 5,-5 -12.5,0 5,5 0,0 Z"
         id="path6580"
         inkscape:connector-curvature="0" /></marker><marker
       inkscape:stockid="Arrow1Lstart"
       orient="auto"
       refY="0"
       refX="0"
       id="Arrow1Lstart"
       style="overflow:visible"
       inkscape:isstock="true"
       inkscape:collect="always"><path
         id="path4260"
         d="M 0,0 5,-5 -12.5,0 5,5 0,0 Z"
         style="fill:#000000;fill-opacity:1;fill-rule:evenodd;stroke:#000000;stroke-width:1pt;stroke-opacity:1"
         transform="matrix(0.8,0,0,0.8,10,0)"
         inkscape:connector-curvature="0" /></marker><marker
       inkscape:isstock="true"
       style="overflow:visible"
       id="marker5145"
       refX="0"
       refY="0"
       orient="auto"
       inkscape:stockid="Arrow1Lend"><path
         transform="matrix(-0.8,0,0,-0.8,-10,0)"
         style="fill:#000000;fill-opacity:1;fill-rule:evenodd;stroke:#000000;stroke-width:1pt;stroke-opacity:1"
         d="M 0,0 5,-5 -12.5,0 5,5 0,0 Z"
         id="path5147"
         inkscape:connector-curvature="0" /></marker><marker
       inkscape:stockid="Arrow1Lend"
       orient="auto"
       refY="0"
       refX="0"
       id="marker5019"
       style="overflow:visible"
       inkscape:isstock="true"
       inkscape:collect="always"><path
         id="path5021"
         d="M 0,0 5,-5 -12.5,0 5,5 0,0 Z"
         style="fill:#000000;fill-opacity:1;fill-rule:evenodd;stroke:#000000;stroke-width:1pt;stroke-opacity:1"
         transform="matrix(-0.8,0,0,-0.8,-10,0)"
         inkscape:connector-curvature="0" /></marker><marker
       inkscape:isstock="true"
       style="overflow:visible"
       id="marker4905"
       refX="0"
       refY="0"
       orient="auto"
       inkscape:stockid="Arrow1Lend"
       inkscape:collect="always"><path
         transform="matrix(-0.8,0,0,-0.8,-10,0)"
         style="fill:#000000;fill-opacity:1;fill-rule:evenodd;stroke:#000000;stroke-width:1pt;stroke-opacity:1"
         d="M 0,0 5,-5 -12.5,0 5,5 0,0 Z"
         id="path4907"
         inkscape:connector-curvature="0" /></marker><marker
       inkscape:isstock="true"
       style="overflow:visible"
       id="marker4773"
       refX="0"
       refY="0"
       orient="auto"
       inkscape:stockid="Arrow1Lend"
       inkscape:collect="always"><path
         transform="matrix(-0.8,0,0,-0.8,-10,0)"
         style="fill:#000000;fill-opacity:1;fill-rule:evenodd;stroke:#000000;stroke-width:1pt;stroke-opacity:1"
         d="M 0,0 5,-5 -12.5,0 5,5 0,0 Z"
         id="path4775"
         inkscape:connector-curvature="0" /></marker><marker
       inkscape:stockid="Arrow1Lend"
       orient="auto"
       refY="0"
       refX="0"
       id="marker4653"
       style="overflow:visible"
       inkscape:isstock="true"
       inkscape:collect="always"><path
         id="path4655"
         d="M 0,0 5,-5 -12.5,0 5,5 0,0 Z"
         style="fill:#000000;fill-opacity:1;fill-rule:evenodd;stroke:#000000;stroke-width:1pt;stroke-opacity:1"
         transform="matrix(-0.8,0,0,-0.8,-10,0)"
         inkscape:connector-curvature="0" /></marker><marker
       inkscape:isstock="true"
       style="overflow:visible"
       id="marker4581"
       refX="0"
       refY="0"
       orient="auto"
       inkscape:stockid="Arrow1Lend"
       inkscape:collect="always"><path
         transform="matrix(-0.8,0,0,-0.8,-10,0)"
         style="fill:#000000;fill-opacity:1;fill-rule:evenodd;stroke:#000000;stroke-width:1pt;stroke-opacity:1"
         d="M 0,0 5,-5 -12.5,0 5,5 0,0 Z"
         id="path4583"
         inkscape:connector-curvature="0" /></marker><marker
       inkscape:stockid="Arrow1Lend"
       orient="auto"
       refY="0"
       refX="0"
       id="Arrow1Lend"
       style="overflow:visible"
       inkscape:isstock="true"
       inkscape:collect="always"><path
         id="path4263"
         d="M 0,0 5,-5 -12.5,0 5,5 0,0 Z"
         style="fill:#000000;fill-opacity:1;fill-rule:evenodd;stroke:#000000;stroke-width:1pt;stroke-opacity:1"
         transform="matrix(-0.8,0,0,-0.8,-10,0)"
         inkscape:connector-curvature="0" /></marker></defs><sodipodi:namedview
     pagecolor="#ffffff"
     bordercolor="#666666"
     borderopacity="1"
     objecttolerance="10"
     gridtolerance="10"
     guidetolerance="10"
     inkscape:pageopacity="0"
     inkscape:pageshadow="2"
     inkscape:window-width="1513"
     inkscape:window-height="872"
     id="namedview122"
     showgrid="false"
     units="px"
     inkscape:zoom="1"
     inkscape:cx="415.58362"
     inkscape:cy="128.75686"
     inkscape:window-x="46"
     inkscape:window-y="41"
     inkscape:window-maximized="0"
     inkscape:current-layer="svg2" /><g
     transform="translate(-14,-13)"
     id="g4"><path
       d="m 160,97.5 c 0,-4.139 -3.361,-7.5 -7.5,-7.5 l -115,0 C 33.361,90 30,93.361 30,97.5 l 0,15 c 0,4.139 3.361,7.5 7.5,7.5 l 115,0 c 4.139,0 7.5,-3.361 7.5,-7.5 l 0,-15 z"
       style="fill:#ebebeb"
       id="path6"
       inkscape:connector-curvature="0" /><g
       transform="translate(-31.4744,4.46322)"
       id="g8"><text
         x="88.125"
         y="103.563"
         style="font-size:12px;font-family:ArialMT, Arial, sans-serif"
         id="text10">Galnet articles</text>
</g></g><g
     transform="translate(271,-13)"
     id="g12"><path
       d="m 160,97.5 c 0,-4.139 -3.361,-7.5 -7.5,-7.5 l -115,0 C 33.361,90 30,93.361 30,97.5 l 0,15 c 0,4.139 3.361,7.5 7.5,7.5 l 115,0 c 4.139,0 7.5,-3.361 7.5,-7.5 l 0,-15 z"
       style="fill:#ebebeb"
       id="path14"
       inkscape:connector-curvature="0" /><g
       transform="translate(-9.79469,4.46322)"
       id="g16"><text
         x="88.125"
         y="103.563"
         style="font-size:12px;font-family:ArialMT, Arial, sans-serif"
         id="text18">EDDB</text>
</g></g><g
     transform="translate(265.635,192)"
     id="g20"><g
       transform="translate(5.36475,0)"
       id="g22"><path
         d="m 160,97.5 c 0,-4.139 -3.361,-7.5 -7.5,-7.5 l -115,0 C 33.361,90 30,93.361 30,97.5 l 0,15 c 0,4.139 3.361,7.5 7.5,7.5 l 115,0 c 4.139,0 7.5,-3.361 7.5,-7.5 l 0,-15 z"
         style="fill:#ebebeb"
         id="path24"
         inkscape:connector-curvature="0" /></g><g
       transform="translate(-42.1292,4.46322)"
       id="g26"><text
         x="88.125"
         y="103.563"
         style="font-size:12px;font-family:ArialMT, Arial, sans-serif"
         id="text28">Elite companion API</text>
</g></g><g
     transform="translate(-14,-26.33334)"
     id="g30"><g
       transform="translate(3.2998,150)"
       id="g32"><path
         d="m 160,97.5 c 0,-4.139 -3.361,-7.5 -7.5,-7.5 l -115,0 C 33.361,90 30,93.361 30,97.5 l 0,15 c 0,4.139 3.361,7.5 7.5,7.5 l 115,0 c 4.139,0 7.5,-3.361 7.5,-7.5 l 0,-15 z"
         style="fill:#ebebeb"
         id="path34"
         inkscape:connector-curvature="0" /></g><g
       transform="translate(-16.2794,91.6549)"
       id="g36"><text
         x="83.228996"
         y="166.371"
         style="font-size:12px;font-family:ArialMT, Arial, sans-serif"
         id="text38">Elite journal</text>
</g></g><g
     transform="translate(-14,42)"
     id="g40"><g
       transform="translate(3.2998,150)"
       id="g42"><path
         d="m 160,97.5 c 0,-4.139 -3.361,-7.5 -7.5,-7.5 l -115,0 C 33.361,90 30,93.361 30,97.5 l 0,15 c 0,4.139 3.361,7.5 7.5,7.5 l 115,0 c 4.139,0 7.5,-3.361 7.5,-7.5 l 0,-15 z"
         style="fill:#ebebeb"
         id="path44"
         inkscape:connector-curvature="0" /></g><g
       transform="translate(10.0702,91.6549)"
       id="g46"><text
         x="83.228996"
         y="166.371"
         style="font-size:12px;font-family:ArialMT, Arial, sans-serif"
         id="text48">...</text>
</g></g><g
     transform="translate(-14,-19.3508)"
     id="g50"><g
       transform="translate(0,74.6841)"
       id="g52"><path
         d="m 160,97.5 c 0,-4.139 -3.361,-7.5 -7.5,-7.5 l -115,0 C 33.361,90 30,93.361 30,97.5 l 0,15 c 0,4.139 3.361,7.5 7.5,7.5 l 115,0 c 4.139,0 7.5,-3.361 7.5,-7.5 l 0,-15 z"
         style="fill:#ebebeb"
         id="path54"
         inkscape:connector-curvature="0" /></g><g
       transform="translate(-29.9818,49.2523)"
       id="g56"><text
         x="85.958"
         y="133.45799"
         style="font-size:12px;font-family:ArialMT, Arial, sans-serif"
         id="text58">Elite netlog ﬁle</text>
</g></g><g
     transform="translate(-6.0103,-36.43398)"
     id="g60"><g
       transform="translate(555,74.6841)"
       id="g62"><path
         d="m 160,97.5 c 0,-4.139 -3.361,-7.5 -7.5,-7.5 l -115,0 C 33.361,90 30,93.361 30,97.5 l 0,15 c 0,4.139 3.361,7.5 7.5,7.5 l 115,0 c 4.139,0 7.5,-3.361 7.5,-7.5 l 0,-15 z"
         style="fill:#ebebeb"
         id="path64"
         inkscape:connector-curvature="0" /></g><g
       transform="translate(546.707,49.2523)"
       id="g66"><text
         x="85.958"
         y="133.45799"
         style="font-size:12px;font-family:ArialMT, Arial, sans-serif"
         id="text68">EDSM</text>
</g></g><g
     transform="translate(-5.9897,14.81597)"
     id="g70"><g
       transform="translate(555,74.6841)"
       id="g72"><path
         d="m 160,97.5 c 0,-4.139 -3.361,-7.5 -7.5,-7.5 l -115,0 C 33.361,90 30,93.361 30,97.5 l 0,15 c 0,4.139 3.361,7.5 7.5,7.5 l 115,0 c 4.139,0 7.5,-3.361 7.5,-7.5 l 0,-15 z"
         style="fill:#ebebeb"
         id="path74"
         inkscape:connector-curvature="0" /></g><g
       transform="translate(547.041,49.2523)"
       id="g76"><text
         x="85.958"
         y="133.45799"
         style="font-size:12px;font-family:ArialMT, Arial, sans-serif"
         id="text78">EDDN</text>
</g></g><g
     transform="translate(-5.9897,66.06593)"
     id="g80"><g
       transform="translate(555,74.6841)"
       id="g82"><path
         d="m 160,97.5 c 0,-4.139 -3.361,-7.5 -7.5,-7.5 l -115,0 C 33.361,90 30,93.361 30,97.5 l 0,15 c 0,4.139 3.361,7.5 7.5,7.5 l 115,0 c 4.139,0 7.5,-3.361 7.5,-7.5 l 0,-15 z"
         style="fill:#ebebeb"
         id="path84"
         inkscape:connector-curvature="0" /></g><g
       transform="translate(532.691,49.2523)"
       id="g86"><text
         x="85.958"
         y="133.45799"
         style="font-size:12px;font-family:ArialMT, Arial, sans-serif"
         id="text88">V<tspan
   x="93.300003 99.973999"
   y="133.45799 133.45799"
   id="tspan90">oi</tspan>ceAttack</text>
</g></g><g
     transform="translate(-6,117.3159)"
     id="g92"><g
       transform="translate(555,74.6841)"
       id="g94"><path
         d="m 160,97.5 c 0,-4.139 -3.361,-7.5 -7.5,-7.5 l -115,0 C 33.361,90 30,93.361 30,97.5 l 0,15 c 0,4.139 3.361,7.5 7.5,7.5 l 115,0 c 4.139,0 7.5,-3.361 7.5,-7.5 l 0,-15 z"
         style="fill:#ebebeb"
         id="path96"
         inkscape:connector-curvature="0" /></g><g
       transform="translate(559.041,49.2523)"
       id="g98"><text
         x="85.958"
         y="133.45799"
         style="font-size:12px;font-family:ArialMT, Arial, sans-serif"
         id="text100">...</text>
</g></g><g
     transform="translate(-6.0103,-87.684)"
     id="g102"><g
       transform="translate(555,74.6841)"
       id="g104"><path
         d="m 160,97.5 c 0,-4.139 -3.361,-7.5 -7.5,-7.5 l -115,0 C 33.361,90 30,93.361 30,97.5 l 0,15 c 0,4.139 3.361,7.5 7.5,7.5 l 115,0 c 4.139,0 7.5,-3.361 7.5,-7.5 l 0,-15 z"
         style="fill:#ebebeb"
         id="path106"
         inkscape:connector-curvature="0" /></g><g
       transform="translate(543.692,49.2523)"
       id="g108"><text
         x="85.958"
         y="133.45799"
         style="font-size:12px;font-family:ArialMT, Arial, sans-serif"
         id="text110">Speech</text>
</g></g><g
     transform="translate(16,57)"
     id="g112"><g
       transform="matrix(0.714286,0,0,0.446288,121.429,56.4455)"
       id="g114"><path
         d="M 460,153.611 C 460,135.06 450.59,120 439,120 l -238,0 c -11.59,0 -21,15.06 -21,33.611 l 0,67.221 c 0,18.55 9.41,33.61 21,33.61 l 238,0 c 11.59,0 21,-15.06 21,-33.61 l 0,-67.221 z"
         style="fill:#ebebeb"
         id="path116"
         inkscape:connector-curvature="0" /></g><g
       transform="translate(9.45369,-20.2909)"
       id="g118"><text
         x="311.87601"
         y="166.34399"
         style="font-size:24px;font-family:ArialMT, Arial, sans-serif"
         id="text120">EDDI</text>
</g></g><path
     style="fill:none;fill-rule:evenodd;stroke:#000000;stroke-width:1px;stroke-linecap:butt;stroke-linejoin:miter;stroke-opacity:1;marker-end:url(#Arrow1Lend)"
     d="m 145,92 124,80"
     id="path3454"
     inkscape:connector-curvature="0" /><path
     inkscape:connector-curvature="0"
     id="path4579"
     d="M 147.5,161.5 265.25124,189"
     style="fill:none;fill-rule:evenodd;stroke:#000000;stroke-width:1px;stroke-linecap:butt;stroke-linejoin:miter;stroke-opacity:1;marker-end:url(#marker4581)"
     sodipodi:nodetypes="cc" /><path
     style="fill:none;fill-rule:evenodd;stroke:#000000;stroke-width:1px;stroke-linecap:butt;stroke-linejoin:miter;stroke-opacity:1;marker-end:url(#marker4653)"
     d="M 148.5,228 265.7529,203.99751"
     id="path4651"
     inkscape:connector-curvature="0"
     sodipodi:nodetypes="cc" /><path
     inkscape:connector-curvature="0"
     id="path4771"
     d="M 149,296 267.00083,219.50083"
     style="fill:none;fill-rule:evenodd;stroke:#000000;stroke-width:1px;stroke-linecap:butt;stroke-linejoin:miter;stroke-opacity:1;marker-end:url(#marker4773)"
     sodipodi:nodetypes="cc" /><path
     inkscape:connector-curvature="0"
     id="path4903"
     d="m 369.5,107.5 0.0449,58.71478"
     style="fill:none;fill-rule:evenodd;stroke:#000000;stroke-width:1px;stroke-linecap:butt;stroke-linejoin:miter;stroke-opacity:1;marker-start:url(#Arrow1Lstart);marker-end:url(#marker4905)"
     sodipodi:nodetypes="cc" /><path
     style="fill:none;fill-rule:evenodd;stroke:#000000;stroke-width:1px;stroke-linecap:butt;stroke-linejoin:miter;stroke-opacity:1;marker-start:url(#marker6578);marker-end:url(#marker5019)"
     d="m 363.5,228 0.54572,53.70649"
     id="path5017"
     inkscape:connector-curvature="0"
     sodipodi:nodetypes="cc" /><path
     sodipodi:nodetypes="cc"
     style="fill:none;fill-rule:evenodd;stroke:#000000;stroke-width:1px;stroke-linecap:butt;stroke-linejoin:miter;stroke-opacity:1;marker-end:url(#marker7088)"
     d="M 460.76588,170.79282 578.76671,94.29365"
     id="path7086"
     inkscape:connector-curvature="0" /><path
     inkscape:connector-curvature="0"
     id="path7500"
     d="M 466.43255,180.14725 578.76671,142.64808"
     style="fill:none;fill-rule:evenodd;stroke:#000000;stroke-width:1px;stroke-linecap:butt;stroke-linejoin:miter;stroke-opacity:1;marker-end:url(#marker7502)"
     sodipodi:nodetypes="cc" /><path
     sodipodi:nodetypes="cc"
     style="fill:none;fill-rule:evenodd;stroke:#000000;stroke-width:1px;stroke-linecap:butt;stroke-linejoin:miter;stroke-opacity:1;marker-end:url(#marker7682)"
     d="m 465.76588,196.3215 113.00083,-0.83249"
     id="path7680"
     inkscape:connector-curvature="0" /><path
     inkscape:connector-curvature="0"
     id="path7830"
     d="m 466.26738,207.50177 112.00083,38.83417"
     style="fill:none;fill-rule:evenodd;stroke:#000000;stroke-width:1px;stroke-linecap:butt;stroke-linejoin:miter;stroke-opacity:1;marker-end:url(#marker7832)"
     sodipodi:nodetypes="cc" /><path
     sodipodi:nodetypes="cc"
     style="fill:none;fill-rule:evenodd;stroke:#000000;stroke-width:1px;stroke-linecap:butt;stroke-linejoin:miter;stroke-opacity:1;marker-end:url(#marker8036)"
     d="m 462.93405,220.51085 115.33416,78.16751"
     id="path8034"
     inkscape:connector-curvature="0" /><text
     xml:space="preserve"
     style="font-style:normal;font-weight:normal;font-size:35px;line-height:125%;font-family:Sans;letter-spacing:0px;word-spacing:0px;fill:#000000;fill-opacity:1;stroke:none;stroke-width:1px;stroke-linecap:butt;stroke-linejoin:miter;stroke-opacity:1"
     x="-1"
     y="47"
     id="text8682"
     sodipodi:linespacing="125%"><tspan
       sodipodi:role="line"
       id="tspan8684"
       x="-1"
       y="47">Monitors</tspan></text>
<text
     xml:space="preserve"
     style="font-style:normal;font-weight:normal;font-size:40px;line-height:125%;font-family:Sans;letter-spacing:0px;word-spacing:0px;fill:#000000;fill-opacity:1;stroke:none;stroke-width:1px;stroke-linecap:butt;stroke-linejoin:miter;stroke-opacity:1"
     x="528"
     y="47"
     id="text8686"
     sodipodi:linespacing="125%"><tspan
       sodipodi:role="line"
       id="tspan8688"
       x="528"
       y="47">Responders</tspan></text>
</svg>